<svg width="89" height="89" viewBox="0 0 89 89" fill="none" xmlns="http://www.w3.org/2000/svg">
<path d="M4.38464 19.1587H51.4434V56.2279H4.38464V19.1587Z" fill="#FC883A"/>
<path d="M84.6154 56.2279V41.6103L75.586 39.7796L66.6666 24.6252H51.4434V56.2279H84.6154Z" fill="#3EA2E5"/>
<path d="M57.0601 19.1587H61.3008V24.6252H57.0601V19.1587Z" fill="#FC883A"/>
<path d="M78.8345 45.8761H84.6154V50.5632H78.8345V45.8761Z" fill="#DFEEF4"/>
<path d="M69.7162 29.8066H57.0601V39.7795H75.586L69.7162 29.8066Z" fill="#DFEEF4"/>
<path d="M4.38464 56.2279H84.6147V64.7059H4.38464V56.2279Z" fill="#3EA2E5"/>
<path d="M20.762 69.8414C25.95 69.8414 30.1557 65.6357 30.1557 60.4477C30.1557 55.2598 25.95 51.0541 20.762 51.0541C15.574 51.0541 11.3683 55.2598 11.3683 60.4477C11.3683 65.6357 15.574 69.8414 20.762 69.8414Z" fill="#6D7A84"/>
<path d="M68.238 69.8414C73.426 69.8414 77.6317 65.6357 77.6317 60.4477C77.6317 55.2598 73.426 51.0541 68.238 51.0541C63.05 51.0541 58.8443 55.2598 58.8443 60.4477C58.8443 65.6357 63.05 69.8414 68.238 69.8414Z" fill="#6D7A84"/>
<path d="M20.762 63.9437C22.6928 63.9437 24.2581 62.3785 24.2581 60.4477C24.2581 58.5169 22.6928 56.9517 20.762 56.9517C18.8312 56.9517 17.266 58.5169 17.266 60.4477C17.266 62.3785 18.8312 63.9437 20.762 63.9437Z" fill="#DFEEF4"/>
<path d="M68.2379 63.9437C70.1688 63.9437 71.734 62.3785 71.734 60.4477C71.734 58.5169 70.1688 56.9517 68.2379 56.9517C66.3071 56.9517 64.7419 58.5169 64.7419 60.4477C64.7419 62.3785 66.3071 63.9437 68.2379 63.9437Z" fill="#DFEEF4"/>
<path d="M4.38532 36.926C4.70798 36.9258 5.01737 36.7976 5.24553 36.5694C5.47368 36.3412 5.60194 36.0319 5.60212 35.7092V20.3727H41.8933C42.216 20.3727 42.5255 20.2445 42.7537 20.0163C42.9819 19.7881 43.1101 19.4786 43.1101 19.1559C43.1101 18.8332 42.9819 18.5237 42.7537 18.2955C42.5255 18.0673 42.216 17.9391 41.8933 17.9391H4.38532C4.22551 17.939 4.06724 17.9704 3.91957 18.0315C3.7719 18.0926 3.63772 18.1823 3.52472 18.2953C3.41171 18.4083 3.32208 18.5425 3.26096 18.6901C3.19985 18.8378 3.16844 18.9961 3.16853 19.1559V35.7043C3.16789 35.8645 3.19889 36.0233 3.25975 36.1715C3.32061 36.3197 3.41014 36.4544 3.52319 36.5679C3.63625 36.6814 3.7706 36.7715 3.91855 36.8329C4.0665 36.8944 4.22512 36.926 4.38532 36.926Z" fill="black"/>
<path d="M4.38532 46.0729C4.70803 46.0729 5.01753 45.9447 5.24572 45.7165C5.47391 45.4883 5.60211 45.1788 5.60211 44.8561V41.7272C5.60211 41.4045 5.47391 41.095 5.24572 40.8668C5.01753 40.6386 4.70803 40.5104 4.38532 40.5104C4.0626 40.5104 3.7531 40.6386 3.52491 40.8668C3.29672 41.095 3.16852 41.4045 3.16852 41.7272V44.8561C3.16843 45.0159 3.19984 45.1742 3.26096 45.3218C3.32207 45.4695 3.4117 45.6037 3.52471 45.7167C3.63771 45.8297 3.77189 45.9193 3.91956 45.9804C4.06723 46.0416 4.2255 46.073 4.38532 46.0729Z" fill="black"/>
<path d="M84.8566 40.4168L76.3592 38.6938L67.7151 24.0074C67.6076 23.8249 67.4544 23.6735 67.2705 23.5684C67.0866 23.4633 66.8784 23.408 66.6665 23.4081H62.5176V19.1583C62.5176 18.8356 62.3894 18.5261 62.1612 18.2979C61.933 18.0697 61.6235 17.9415 61.3008 17.9415H57.0594C56.7367 17.9415 56.4272 18.0697 56.199 18.2979C55.9708 18.5261 55.8426 18.8356 55.8426 19.1583V23.4081H52.6602V19.1583C52.6603 18.9985 52.6288 18.8402 52.5677 18.6926C52.5066 18.5449 52.417 18.4107 52.304 18.2977C52.191 18.1847 52.0568 18.0951 51.9091 18.034C51.7615 17.9728 51.6032 17.9414 51.4434 17.9415H47.2319C46.9091 17.9415 46.5996 18.0697 46.3715 18.2979C46.1433 18.5261 46.0151 18.8356 46.0151 19.1583C46.0151 19.481 46.1433 19.7905 46.3715 20.0187C46.5996 20.2469 46.9091 20.3751 47.2319 20.3751H50.2266V55.0107H29.8539C28.9165 53.4341 27.5853 52.1283 25.9909 51.2214C24.3965 50.3145 22.5938 49.8377 20.7596 49.8377C18.9253 49.8377 17.1226 50.3145 15.5282 51.2214C13.9339 52.1283 12.6027 53.4341 11.6652 55.0107H5.60211V50.5837C5.60211 50.2609 5.47391 49.9515 5.24572 49.7233C5.01753 49.4951 4.70803 49.3669 4.38531 49.3669C4.0626 49.3669 3.7531 49.4951 3.52491 49.7233C3.29672 49.9515 3.16852 50.2609 3.16852 50.5837V64.7055C3.16852 65.0282 3.29672 65.3377 3.52491 65.5659C3.7531 65.7941 4.0626 65.9222 4.38531 65.9222H11.6903C12.6303 67.4885 13.9599 68.7847 15.5496 69.6846C17.1393 70.5846 18.9349 71.0575 20.7617 71.0575C22.5884 71.0575 24.384 70.5846 25.9737 69.6846C27.5634 68.7847 28.893 67.4885 29.8331 65.9222H59.1669C60.107 67.4885 61.4366 68.7847 63.0263 69.6846C64.6159 70.5846 66.4116 71.0575 68.2383 71.0575C70.065 71.0575 71.8606 70.5846 73.4503 69.6846C75.04 68.7847 76.3696 67.4885 77.3097 65.9222H84.6146C84.9374 65.9222 85.2468 65.7941 85.475 65.5659C85.7032 65.3377 85.8314 65.0282 85.8314 64.7055V41.61C85.8315 41.3292 85.7344 41.057 85.5568 40.8396C85.3791 40.6221 85.1318 40.4728 84.8566 40.4168ZM83.3965 49.346H80.0513V47.0925H83.3978L83.3965 49.346ZM73.4535 38.5617H58.2762V31.0231H69.0202L73.4535 38.5617ZM58.2762 20.3723H60.084V23.4053H58.2762V20.3723ZM52.6602 25.8389H65.9705L67.5878 28.5868H57.0594C56.7367 28.5868 56.4272 28.715 56.199 28.9432C55.9708 29.1713 55.8426 29.4808 55.8426 29.8036V39.7785C55.8426 40.1012 55.9708 40.4107 56.199 40.6389C56.4272 40.8671 56.7367 40.9953 57.0594 40.9953H75.4629L83.3978 42.6043V44.6589H78.8345C78.5118 44.6591 78.2025 44.7873 77.9743 45.0155C77.7461 45.2437 77.6179 45.553 77.6177 45.8757V50.5628C77.6177 50.8855 77.7459 51.195 77.9741 51.4232C78.2023 51.6514 78.5118 51.7796 78.8345 51.7796H83.3978V55.0107H77.3326C76.3952 53.4341 75.064 52.1283 73.4696 51.2214C71.8753 50.3145 70.0725 49.8377 68.2383 49.8377C66.4041 49.8377 64.6013 50.3145 63.007 51.2214C61.4126 52.1283 60.0814 53.4341 59.1439 55.0107H52.6602V25.8389ZM5.60211 63.4887V57.4443H10.591C10.0017 59.4165 10.005 61.5184 10.6007 63.4887H5.60211ZM20.7599 68.6242C19.1427 68.6242 17.5617 68.1446 16.217 67.2461C14.8723 66.3476 13.8243 65.0705 13.2054 63.5764C12.5865 62.0822 12.4247 60.4381 12.7402 58.8519C13.0558 57.2657 13.8346 55.8087 14.9782 54.6652C16.1219 53.5217 17.5789 52.7429 19.1651 52.4275C20.7513 52.1121 22.3954 52.2741 23.8896 52.8931C25.3837 53.5121 26.6607 54.5603 27.5591 55.905C28.4575 57.2498 28.9369 58.8308 28.9368 60.4481C28.9351 62.6161 28.0734 64.695 26.5406 66.2284C25.0079 67.7618 22.9294 68.6244 20.7613 68.627L20.7599 68.6242ZM30.9226 63.4887C31.5183 61.5184 31.5217 59.4165 30.9323 57.4443H58.0676C57.4783 59.4165 57.4817 61.5184 58.0773 63.4887H30.9226ZM68.2386 68.627C66.6215 68.6272 65.0406 68.1478 63.6958 67.2494C62.3511 66.3511 61.303 65.0743 60.6839 63.5803C60.0648 62.0863 59.9027 60.4423 60.2179 58.8561C60.5332 57.27 61.3117 55.8129 62.455 54.6692C63.5984 53.5255 65.0551 52.7465 66.6412 52.4307C68.2272 52.1149 69.8713 52.2765 71.3655 52.895C72.8597 53.5136 74.1369 54.5613 75.0357 55.9057C75.9345 57.2501 76.4144 58.8309 76.4148 60.4481C76.4132 62.6163 75.5513 64.6952 74.0184 66.2286C72.4855 67.7621 70.4068 68.6246 68.2386 68.627ZM83.3965 63.4914H78.3979C78.9935 61.5212 78.9969 59.4193 78.4076 57.4471H83.3965V63.4914Z" fill="black"/>
<path d="M20.7613 55.7349C19.8293 55.735 18.9182 56.0115 18.1433 56.5294C17.3684 57.0473 16.7644 57.7834 16.4078 58.6445C16.0512 59.5056 15.9579 60.4532 16.1398 61.3673C16.3217 62.2814 16.7705 63.1211 17.4296 63.7802C18.0886 64.4392 18.9283 64.8881 19.8424 65.0699C20.7566 65.2518 21.7041 65.1585 22.5652 64.8019C23.4264 64.4453 24.1624 63.8414 24.6803 63.0664C25.1982 62.2915 25.4747 61.3804 25.4749 60.4484C25.4736 59.1987 24.9765 58.0005 24.0929 57.1168C23.2092 56.2332 22.011 55.7362 20.7613 55.7349ZM20.7613 62.7269C20.3105 62.7268 19.8699 62.593 19.4952 62.3424C19.1204 62.0919 18.8284 61.7358 18.656 61.3193C18.4836 60.9028 18.4386 60.4445 18.5267 60.0024C18.6148 59.5603 18.832 59.1542 19.1509 58.8355C19.4697 58.5169 19.8759 58.2999 20.318 58.2121C20.7602 58.1243 21.2185 58.1696 21.6349 58.3422C22.0513 58.5149 22.4072 58.8071 22.6575 59.182C22.9079 59.5569 23.0414 59.9976 23.0413 60.4484C23.0405 61.0527 22.8 61.6321 22.3726 62.0592C21.9451 62.4864 21.3656 62.7266 20.7613 62.7269Z" fill="black"/>
<path d="M68.2386 55.7349C67.3065 55.7347 66.3953 56.011 65.6202 56.5287C64.8451 57.0465 64.241 57.7824 63.8841 58.6435C63.5273 59.5046 63.4338 60.4522 63.6155 61.3664C63.7972 62.2807 64.246 63.1205 64.905 63.7797C65.564 64.4389 66.4037 64.8878 67.3178 65.0698C68.232 65.2518 69.1796 65.1586 70.0408 64.802C70.902 64.4455 71.6382 63.8415 72.1561 63.0666C72.6741 62.2916 72.9506 61.3805 72.9508 60.4484C72.9493 59.199 72.4524 58.0011 71.5691 57.1175C70.6858 56.2339 69.4881 55.7367 68.2386 55.7349ZM68.2386 62.7269C67.7878 62.7271 67.347 62.5935 66.9721 62.3431C66.5972 62.0927 66.3049 61.7367 66.1323 61.3202C65.9597 60.9037 65.9146 60.4454 66.0025 60.0032C66.0904 59.561 66.3075 59.1548 66.6263 58.836C66.9451 58.5172 67.3513 58.3001 67.7935 58.2122C68.2357 58.1243 68.694 58.1695 69.1105 58.3421C69.527 58.5147 69.883 58.8069 70.1334 59.1818C70.3837 59.5568 70.5173 59.9975 70.5172 60.4484C70.5163 61.0524 70.2759 61.6314 69.8488 62.0585C69.4217 62.4857 68.8427 62.726 68.2386 62.7269Z" fill="black"/>
<path d="M59.8448 45.7168C60.1676 45.7168 60.4771 45.5886 60.7052 45.3604C60.9334 45.1322 61.0616 44.8227 61.0616 44.5C61.0616 44.1773 60.9334 43.8678 60.7052 43.6396C60.4771 43.4114 60.1676 43.2832 59.8448 43.2832H57.0594C56.7367 43.2832 56.4272 43.4114 56.199 43.6396C55.9708 43.8678 55.8426 44.1773 55.8426 44.5C55.8426 44.8227 55.9708 45.1322 56.199 45.3604C56.4272 45.5886 56.7367 45.7168 57.0594 45.7168H59.8448Z" fill="black"/>
<path d="M11.2091 23.6656C10.8864 23.6656 10.5769 23.7938 10.3487 24.022C10.1205 24.2502 9.99231 24.5597 9.99231 24.8824C9.99231 25.2052 10.1205 25.5147 10.3487 25.7429C10.5769 25.971 10.8864 26.0992 11.2091 26.0992H23.2672C23.5899 26.0992 23.8994 25.971 24.1276 25.7429C24.3558 25.5147 24.484 25.2052 24.484 24.8824C24.484 24.5597 24.3558 24.2502 24.1276 24.022C23.8994 23.7938 23.5899 23.6656 23.2672 23.6656H11.2091Z" fill="black"/>
<path d="M28.0906 23.6656C27.7679 23.6656 27.4584 23.7938 27.2302 24.022C27.002 24.2502 26.8738 24.5597 26.8738 24.8824C26.8738 25.2052 27.002 25.5147 27.2302 25.7429C27.4584 25.971 27.7679 26.0992 28.0906 26.0992H30.5896C30.9123 26.0992 31.2218 25.971 31.45 25.7429C31.6782 25.5147 31.8064 25.2052 31.8064 24.8824C31.8064 24.5597 31.6782 24.2502 31.45 24.022C31.2218 23.7938 30.9123 23.6656 30.5896 23.6656H28.0906Z" fill="black"/>
</svg>
