<?xml version="1.0" encoding="utf-8"?>
<!-- Generator: Adobe Illustrator 22.0.1, SVG Export Plug-In . SVG Version: 6.00 Build 0)  -->
<svg version="1.1" id="Capa_1" xmlns="http://www.w3.org/2000/svg" xmlns:xlink="http://www.w3.org/1999/xlink" x="0px" y="0px"
	 viewBox="0 0 416.5 416.5" style="enable-background:new 0 0 416.5 416.5;" xml:space="preserve">
<style type="text/css">
	.st0{fill:#FECD08;}
	.st1{fill:#79C5C0;}
	.st2{fill:#DDDDDD;}
	.st3{fill:#606060;}
</style>
<path d="M191,240.3c-3.8,0-6.8-3.1-6.8-6.8V85.4h-34c-3.8,0-6.8-3.1-6.8-6.8c0-3.8,3.1-6.8,6.8-6.8H191c3.8,0,6.8,3.1,6.8,6.8v154.9
	C197.9,237.2,194.8,240.3,191,240.3z"/>
<path d="M225.3,180.9H198c-3.8,0-6.8-3.1-6.8-6.8s3.1-6.8,6.8-6.8h27.3c3.8,0,6.8,3.1,6.8,6.8S229,180.9,225.3,180.9z"/>
<circle class="st0" cx="122.9" cy="78.5" r="34.1"/>
<path d="M122.9,119.5c-22.6,0-41-18.4-41-41s18.4-41,41-41s41,18.4,41,41S145.5,119.5,122.9,119.5z M122.9,51.2
	c-15.1,0-27.3,12.3-27.3,27.3s12.3,27.3,27.3,27.3s27.3-12.3,27.3-27.3S137.9,51.2,122.9,51.2z"/>
<path class="st1" d="M369.4,336c6.7,3.5,14.9,0.9,18.4-5.8c3.5-6.7,0.9-14.9-5.8-18.4L221.8,229h-85.4L60,118.3
	c-4.3-6.2-12.8-7.7-19-3.4c-6.2,4.3-7.7,12.8-3.4,19l85.2,122.2h93L369.4,336z"/>
<path d="M375.7,344.4c-3.3,0-6.5-0.8-9.5-2.3L214.1,263h-91.3c-2.2,0-4.3-1.1-5.6-2.9L32,137.8c-6.5-9.3-4.2-22.1,5.1-28.5
	c9.3-6.5,22-4.2,28.5,5.1l74.3,107.7h81.8c1.1,0,2.2,0.3,3.1,0.8l160.3,82.8c4.9,2.5,8.4,6.8,10.1,12s1.1,10.8-1.4,15.6
	c-2.5,4.8-6.8,8.4-12,10.1C379.8,344.1,377.8,344.4,375.7,344.4z M126.3,249.4h89.4c1.1,0,2.2,0.3,3.1,0.8L372.5,330c0,0,0,0,0,0
	c1.6,0.8,3.5,1,5.2,0.5c1.7-0.5,3.2-1.7,4-3.3c0.8-1.6,1-3.5,0.5-5.2c-0.5-1.7-1.7-3.2-3.3-4l-158.8-82.1h-83.8
	c-2.2,0-4.3-1.1-5.6-2.9L54.4,122.2c-2.1-3.1-6.4-3.8-9.5-1.7c-3.1,2.2-3.8,6.4-1.7,9.5L126.3,249.4z"/>
<rect x="225.3" y="153.6" class="st1" width="68.3" height="41"/>
<path d="M293.5,201.4h-68.3c-3.8,0-6.8-3.1-6.8-6.8v-41c0-3.8,3.1-6.8,6.8-6.8h68.3c3.8,0,6.8,3.1,6.8,6.8v41
	C300.4,198.4,297.3,201.4,293.5,201.4z M232.1,187.8h54.6v-27.3h-54.6V187.8z"/>
<path d="M245.8,215.1c-3.8,0-6.8-3.1-6.8-6.8v-34.1c0-3.8,3.1-6.8,6.8-6.8s6.8,3.1,6.8,6.8v34.1C252.6,212,249.5,215.1,245.8,215.1z
	"/>
<path d="M273.1,215.1c-3.8,0-6.8-3.1-6.8-6.8v-34.1c0-3.8,3.1-6.8,6.8-6.8c3.8,0,6.8,3.1,6.8,6.8v34.1
	C279.9,212,276.8,215.1,273.1,215.1z"/>
<polygon class="st2" points="122.9,256 204.8,256 177.9,283.4 204.8,324.3 157,324.3 "/>
<path d="M204.8,330.9H157c-2.5,0-4.8-1.4-5.9-3.6L117,259c-1-2-0.9-4.5,0.3-6.4c1.2-1.9,3.3-3.1,5.6-3.1h81.9c2.7,0,5.1,1.6,6.1,4.1
	c1,2.5,0.5,5.3-1.4,7.2l-23.2,23.6l24,36.4c1.3,2,1.4,4.6,0.3,6.8C209.5,329.6,207.2,330.9,204.8,330.9z M161.1,317.7h31.5
	L172.4,287c-1.7-2.6-1.4-6,0.8-8.3l15.9-16.2h-55.5L161.1,317.7z"/>
<polygon class="st3" points="122.9,324.3 204.8,324.3 204.8,372.1 61.4,372.1 "/>
<path d="M204.8,378.9H61.4c-2.9,0-5.5-1.9-6.5-4.6c-0.9-2.8,0-5.8,2.3-7.6l61.4-47.8c1.2-0.9,2.7-1.4,4.2-1.4h81.9
	c3.8,0,6.8,3.1,6.8,6.8v47.8C211.6,375.9,208.6,378.9,204.8,378.9z M81.3,365.3H198v-34.1h-72.8L81.3,365.3z"/>
<path d="M409.7,378.9H6.8c-3.8,0-6.8-3.1-6.8-6.8s3.1-6.8,6.8-6.8h402.8c3.8,0,6.8,3.1,6.8,6.8S413.4,378.9,409.7,378.9z"/>
</svg>
