<svg width="85" height="85" viewBox="0 0 85 85" fill="none" xmlns="http://www.w3.org/2000/svg">
<path d="M43.8281 47.8125H73.0469V81.0156H43.8281V47.8125Z" fill="#CDEEF6"/>
<path d="M58.4375 69.0625L67.7344 65.0781V47.8125H66.4062L58.4375 69.0625Z" fill="#92CDDE"/>
<path d="M58.4375 69.0625L49.1406 65.0781V47.8125H50.4688L58.4375 69.0625Z" fill="#92CDDE"/>
<path d="M73.0469 47.8125H75.7031C77.1121 47.8125 78.4633 48.3722 79.4596 49.3685C80.4559 50.3648 81.0156 51.716 81.0156 53.125V81.0156H73.0469V47.8125Z" fill="#92CDDE"/>
<path d="M35.8594 47.8125V35.8594C35.8594 35.1549 35.5795 34.4793 35.0814 33.9811C34.5832 33.483 33.9076 33.2031 33.2031 33.2031H22.5781C21.8736 33.2031 21.198 33.483 20.6999 33.9811C20.2017 34.4793 19.9219 35.1549 19.9219 35.8594C19.9219 36.5639 20.2017 37.2395 20.6999 37.7376C21.198 38.2358 21.8736 38.5156 22.5781 38.5156H27.8906V53.125C27.8906 53.8295 28.1705 54.5051 28.6686 55.0033C29.1668 55.5014 29.8424 55.7812 30.5469 55.7812H43.8281V47.8125H35.8594Z" fill="#FFD782"/>
<path d="M50.4688 47.8125L58.4375 69.0625L66.4062 47.8125H50.4688Z" fill="#F4F4E6"/>
<path d="M57.1094 69.0625H59.7656V81.0156H57.1094V69.0625Z" fill="#92CDDE"/>
<path d="M55.7812 47.8125L54.4531 58.4375L58.4375 69.0625L62.4219 58.4375L61.0938 47.8125H55.7812Z" fill="#195C85"/>
<path d="M35.8594 41.1719H27.8906V53.125C27.8906 53.8295 28.1705 54.5051 28.6686 55.0033C29.1668 55.5014 29.8424 55.7812 30.5469 55.7812H43.8281V47.8125H35.8594V41.1719Z" fill="#92CDDE"/>
<path d="M71.7188 42.5H45.1562V9.29688C45.1605 7.88921 45.7215 6.54039 46.7169 5.54501C47.7123 4.54964 49.0611 3.98858 50.4688 3.98438H66.4062C67.8152 3.98438 69.1665 4.54408 70.1628 5.54037C71.159 6.53666 71.7188 7.88791 71.7188 9.29688V42.5Z" fill="#FFD782"/>
<path d="M71.7188 19.9219C73.1277 19.9219 74.479 20.4816 75.4753 21.4779C76.4715 22.4742 77.0312 23.8254 77.0312 25.2344C77.0312 26.6433 76.4715 27.9946 75.4753 28.9909C74.479 29.9872 73.1277 30.5469 71.7188 30.5469V19.9219Z" fill="#F9BB4B"/>
<path d="M45.1562 19.9219H55.7812V25.2344H45.1562V19.9219Z" fill="#F4F4E6"/>
<path d="M61.0938 19.9219H71.7188V25.2344H61.0938V19.9219Z" fill="#F4F4E6"/>
<path d="M55.7812 21.25H61.0938V23.9062H55.7812V21.25Z" fill="#AD6327"/>
<path d="M45.1562 14.6094C45.1562 14.6094 58.4375 17.2656 62.4219 11.9531C63.6458 13.1077 65.129 13.9515 66.7467 14.4137C68.3645 14.876 70.0696 14.943 71.7188 14.6094V9.29688C71.7188 7.88791 71.159 6.53666 70.1628 5.54037C69.1665 4.54408 67.8152 3.98438 66.4062 3.98438H50.4688C49.0611 3.98858 47.7123 4.54964 46.7169 5.54501C45.7215 6.54039 45.1605 7.88921 45.1562 9.29688V14.6094Z" fill="#394D5C"/>
<path d="M39.8437 11.9531C39.8437 7.4375 37.153 3.98438 33.2031 3.98438C31.7663 3.98438 30.3682 4.4504 29.2187 5.3125C28.8292 5.58423 28.3656 5.72993 27.8906 5.72993C27.4156 5.72993 26.9521 5.58423 26.5625 5.3125C25.413 4.4504 24.015 3.98438 22.5781 3.98438C18.6283 3.98438 15.9375 7.4375 15.9375 11.9531C15.935 13.8064 16.3913 15.6315 17.2656 17.2656C21.1677 24.9143 20.0998 30.5469 22.5781 30.5469C24.1108 30.5469 25.2344 28.8097 25.2344 25.2344C25.2344 21.1477 26.8693 21.25 27.8906 21.25C28.912 21.25 30.5469 21.1477 30.5469 25.2344C30.5469 28.8097 31.6705 30.5469 33.2031 30.5469C35.6814 30.5469 34.6136 24.9143 38.5156 17.2656C39.3899 15.6315 39.8462 13.8064 39.8437 11.9531Z" fill="#E8E7D4"/>
<path d="M62.4219 71.7188H69.0625V74.375H62.4219V71.7188Z" fill="black"/>
<path d="M75.7031 46.4844H37.1875V35.8594C37.1875 34.8027 36.7677 33.7892 36.0205 33.042C35.2733 32.2948 34.2598 31.875 33.2031 31.875H22.5781C21.5214 31.875 20.508 32.2948 19.7607 33.042C19.0135 33.7892 18.5938 34.8027 18.5938 35.8594C18.5938 36.9161 19.0135 37.9295 19.7607 38.6768C20.508 39.424 21.5214 39.8438 22.5781 39.8438H26.5625V53.125C26.5625 54.1817 26.9823 55.1952 27.7295 55.9424C28.4767 56.6896 29.4902 57.1094 30.5469 57.1094H42.5V81.0156C42.5 81.3679 42.6399 81.7057 42.889 81.9548C43.1381 82.2038 43.4759 82.3438 43.8281 82.3438H81.0156C81.3679 82.3438 81.7057 82.2038 81.9548 81.9548C82.2038 81.7057 82.3438 81.3679 82.3438 81.0156V53.125C82.3416 51.3644 81.6413 49.6766 80.3964 48.4317C79.1515 47.1868 77.4637 46.4865 75.7031 46.4844ZM27.8906 37.1875H22.5781C22.2259 37.1875 21.8881 37.0476 21.639 36.7985C21.3899 36.5494 21.25 36.2116 21.25 35.8594C21.25 35.5071 21.3899 35.1693 21.639 34.9202C21.8881 34.6712 22.2259 34.5312 22.5781 34.5312H33.2031C33.5554 34.5312 33.8932 34.6712 34.1423 34.9202C34.3913 35.1693 34.5312 35.5071 34.5312 35.8594V39.8438H29.2188V38.5156C29.2188 38.1634 29.0788 37.8256 28.8298 37.5765C28.5807 37.3274 28.2429 37.1875 27.8906 37.1875ZM42.5 54.4531H30.5469C30.1946 54.4531 29.8568 54.3132 29.6077 54.0641C29.3587 53.8151 29.2188 53.4772 29.2188 53.125V42.5H34.5312V47.8125C34.5312 48.1647 34.6712 48.5026 34.9202 48.7516C35.1693 49.0007 35.5071 49.1406 35.8594 49.1406H42.5V54.4531ZM64.4898 49.1406L63.0713 52.9231L62.5985 49.1406H64.4898ZM66.4062 51.595V64.2029L60.7737 66.6161L66.4062 51.595ZM54.2765 49.1406L53.8037 52.9231L52.3852 49.1406H54.2765ZM50.4688 51.595L56.1013 66.6161L50.4688 64.2029V51.595ZM57.1094 79.6875H45.1562V49.1406H47.8125V65.0781C47.8125 65.338 47.8888 65.5922 48.0319 65.8091C48.1749 66.0261 48.3785 66.1963 48.6173 66.2987L57.1094 69.9377V79.6875ZM55.8118 58.2755L56.954 49.1406H59.921L61.0632 58.2755L58.4375 65.28L55.8118 58.2755ZM71.7188 79.6875H59.7656V69.9377L68.2577 66.2987C68.4965 66.1963 68.7001 66.0261 68.8431 65.8091C68.9862 65.5922 69.0625 65.338 69.0625 65.0781V49.1406H71.7188V79.6875ZM79.6875 79.6875H74.375V49.1406H75.7031C76.7598 49.1406 77.7733 49.5604 78.5205 50.3076C79.2677 51.0548 79.6875 52.0683 79.6875 53.125V79.6875Z" fill="black"/>
<path d="M45.1563 43.8281H71.7188C72.071 43.8281 72.4088 43.6882 72.6579 43.4391C72.907 43.1901 73.0469 42.8522 73.0469 42.5V31.7422C74.548 31.4374 75.8977 30.6229 76.8671 29.4369C77.8365 28.2509 78.366 26.7662 78.366 25.2344C78.366 23.7026 77.8365 22.2179 76.8671 21.0318C75.8977 19.8458 74.548 19.0314 73.0469 18.7266V9.29688C73.0448 7.53632 72.3445 5.84848 71.0996 4.60357C69.8547 3.35867 68.1668 2.65836 66.4063 2.65625H50.4688C48.7082 2.65836 47.0204 3.35867 45.7754 4.60357C44.5305 5.84848 43.8302 7.53632 43.8281 9.29688V42.5C43.8281 42.8522 43.9681 43.1901 44.2171 43.4391C44.4662 43.6882 44.804 43.8281 45.1563 43.8281ZM73.0469 21.4771C73.8242 21.7514 74.4974 22.2601 74.9735 22.9331C75.4496 23.606 75.7053 24.41 75.7053 25.2344C75.7053 26.0587 75.4496 26.8628 74.9735 27.5357C74.4974 28.2086 73.8242 28.7173 73.0469 28.9916V21.4771ZM70.3906 23.9062H62.4219V21.25H70.3906V23.9062ZM46.4844 9.29688C46.4844 8.24015 46.9042 7.22671 47.6514 6.4795C48.3986 5.73228 49.412 5.3125 50.4688 5.3125H66.4063C67.463 5.3125 68.4764 5.73228 69.2236 6.4795C69.9708 7.22671 70.3906 8.24015 70.3906 9.29688V13.4977C69.111 13.5907 67.8259 13.4181 66.6162 12.9907C65.4064 12.5633 64.2981 11.8903 63.3609 11.0141C63.2271 10.8783 63.0654 10.7732 62.887 10.706C62.7086 10.6388 62.5177 10.6112 62.3276 10.625C62.1375 10.6389 61.9527 10.6936 61.7856 10.7852C61.6186 10.8769 61.4732 11.0034 61.3594 11.1562C58.7602 14.6213 50.5458 14.1286 46.4844 13.4924V9.29688ZM46.4844 16.1739C48.3759 16.447 50.2842 16.5881 52.1953 16.5963C55.8423 16.5963 60.0047 16.0132 62.5321 13.7753C64.7783 15.4926 67.5685 16.3423 70.3906 16.1686V18.5938H61.0938C60.7415 18.5938 60.4037 18.7337 60.1546 18.9827C59.9056 19.2318 59.7656 19.5696 59.7656 19.9219V21.25H57.1094V19.9219C57.1094 19.5696 56.9694 19.2318 56.7204 18.9827C56.4713 18.7337 56.1335 18.5938 55.7813 18.5938H46.4844V16.1739ZM46.4844 21.25H54.4531V23.9062H46.4844V21.25ZM46.4844 26.5625H55.7813C56.1335 26.5625 56.4713 26.4226 56.7204 26.1735C56.9694 25.9244 57.1094 25.5866 57.1094 25.2344V23.9062H59.7656V25.2344C59.7656 25.5866 59.9056 25.9244 60.1546 26.1735C60.4037 26.4226 60.7415 26.5625 61.0938 26.5625H70.3906V41.1719H46.4844V26.5625Z" fill="black"/>
<path d="M57.1094 27.8906H59.7656V31.875H57.1094V27.8906Z" fill="black"/>
<path d="M58.4375 35.8594C57.0285 35.8594 55.6773 35.2997 54.681 34.3034C53.6847 33.3071 53.125 31.9558 53.125 30.5469H50.4688C50.4688 32.6603 51.3083 34.6872 52.8027 36.1816C54.2972 37.6761 56.3241 38.5156 58.4375 38.5156C60.5509 38.5156 62.5778 37.6761 64.0723 36.1816C65.5667 34.6872 66.4062 32.6603 66.4062 30.5469H63.75C63.75 31.9558 63.1903 33.3071 62.194 34.3034C61.1977 35.2997 59.8465 35.8594 58.4375 35.8594Z" fill="black"/>
<path d="M26.5625 25.2344C26.5625 23.3471 26.941 22.8239 27.0566 22.711C27.1721 22.5981 27.366 22.5781 27.8136 22.5781H27.9677C28.4325 22.5781 28.6065 22.5901 28.7247 22.711C28.8429 22.8318 29.2188 23.3471 29.2188 25.2344C29.2188 31.3969 32.2734 31.875 33.2031 31.875C35.5446 31.875 36.0666 29.5428 36.6709 26.8428C37.2761 23.7303 38.2945 20.7127 39.699 17.8699C40.6666 16.0479 41.1724 14.0162 41.1719 11.9531C41.1719 6.56627 37.821 2.65627 33.2031 2.65627C31.4742 2.65238 29.7915 3.21497 28.4126 4.25799C28.2551 4.35313 28.0746 4.40342 27.8906 4.40342C27.7066 4.40342 27.5262 4.35313 27.3687 4.25799C25.9897 3.21497 24.3071 2.65238 22.5781 2.65627C17.9602 2.65627 14.6094 6.56627 14.6094 11.9531C14.6089 14.0162 15.1146 16.0479 16.0823 17.8699C17.4868 20.7127 18.5052 23.7303 19.1104 26.8428C19.7147 29.5428 20.2366 31.875 22.5781 31.875C23.5078 31.875 26.5625 31.3969 26.5625 25.2344ZM22.618 29.2453C22.1574 28.3055 21.8486 27.2988 21.7029 26.2624C21.0515 22.9312 19.9572 19.7022 18.449 16.6613C17.6693 15.2147 17.2625 13.5965 17.2656 11.9531C17.2656 8.04315 19.4504 5.31252 22.5781 5.31252C23.7232 5.31393 24.8375 5.68365 25.7563 6.36705C26.3783 6.81393 27.1248 7.05432 27.8906 7.05432C28.6565 7.05432 29.403 6.81393 30.0249 6.36705C30.9437 5.68365 32.058 5.31393 33.2031 5.31252C36.3309 5.31252 38.5156 8.04315 38.5156 11.9531C38.5187 13.5965 38.112 15.2147 37.3323 16.6613C35.8241 19.7022 34.7297 22.9312 34.0784 26.2624C33.9269 27.284 33.6322 28.2793 33.2031 29.2188C32.5391 29.2188 31.875 27.8508 31.875 25.2344C31.9629 24.4522 31.8956 23.6604 31.677 22.9042C31.4585 22.148 31.0929 21.4424 30.6013 20.8277C30.2476 20.5025 29.8304 20.2542 29.376 20.0983C28.9216 19.9424 28.4398 19.8824 27.961 19.9219H27.8202C27.3414 19.8819 26.8595 19.9418 26.405 20.0977C25.9506 20.2537 25.5334 20.5022 25.1799 20.8277C24.6883 21.4424 24.3228 22.148 24.1042 22.9042C23.8857 23.6604 23.8184 24.4522 23.9063 25.2344C23.9063 27.8508 23.2422 29.2188 22.618 29.2453Z" fill="black"/>
<path d="M32.6121 10.4019L31.1379 8.19189C30.1638 8.80219 29.0375 9.12587 27.888 9.12587C26.7385 9.12587 25.6122 8.80219 24.638 8.19189L23.1691 10.4019C24.6362 11.3079 26.3219 11.7981 28.046 11.8203C29.6761 11.8176 31.2674 11.3233 32.6121 10.4019Z" fill="black"/>
<path d="M10.625 22.5781H13.2812V25.2344H10.625V22.5781Z" fill="black"/>
<path d="M10.625 27.8906H13.2812V30.5469H10.625V27.8906Z" fill="black"/>
<path d="M7.96875 25.2344H10.625V27.8906H7.96875V25.2344Z" fill="black"/>
<path d="M13.2812 25.2344H15.9375V27.8906H13.2812V25.2344Z" fill="black"/>
<path d="M5.3125 10.625H7.96875V13.2812H5.3125V10.625Z" fill="black"/>
<path d="M5.3125 15.9375H7.96875V18.5938H5.3125V15.9375Z" fill="black"/>
<path d="M2.65625 13.2812H5.3125V15.9375H2.65625V13.2812Z" fill="black"/>
<path d="M7.96875 13.2812H10.625V15.9375H7.96875V13.2812Z" fill="black"/>
</svg>
