<svg width="85" height="85" viewBox="0 0 85 85" fill="none" xmlns="http://www.w3.org/2000/svg">
<path d="M35.8594 27.2266L39.8438 33.2031L50.1458 38.9265C51.2138 39.5198 52.0446 40.4631 52.4983 41.5974L57.1094 53.125L65.0781 49.1406L71.7188 53.125L59.7656 66.4062H50.4688V81.0156H14.6094V69.0625H9.29688L3.98438 62.4219L9.97251 42.0622C10.1784 41.3623 10.5262 40.7123 10.9943 40.1527C11.4624 39.5931 12.0408 39.1359 12.6933 38.8096L23.9062 33.2031L27.8906 27.2266H35.8594Z" fill="#E0EDFF"/>
<path d="M23.9062 33.2031H39.8438V81.0156H23.9062V33.2031Z" fill="#548AFF"/>
<path d="M50.4688 66.4062L45.1562 59.7656V81.0156H50.4688V66.4062Z" fill="#C8DBF7"/>
<path d="M30.5469 53.125L35.8594 49.1406H42.5V57.1094L39.8438 61.0938H32.3178L30.5469 53.125Z" fill="#FFCEB6"/>
<path d="M11.9531 59.7656L30.5469 53.125L33.2031 65.0781L18.5938 69.0625H14.6094L11.9531 59.7656Z" fill="#E0EDFF"/>
<path d="M35.8594 49.1406L43.8281 39.8438L47.8125 42.5L42.5 49.1406H35.8594Z" fill="#8098AB"/>
<path d="M65.0781 49.1406L69.0625 45.1562H81.0156V47.8125L71.7188 53.125L65.0781 49.1406Z" fill="#FFCEB6"/>
<path d="M65.0781 30.5469L59.7656 35.8594V45.1562H81.0156V35.8594L75.7031 30.5469H65.0781Z" fill="#EF5E3B"/>
<path d="M75.7031 39.8438V27.8906L76.3354 26.6261C76.793 25.7109 77.0312 24.7016 77.0312 23.6784C77.0312 22.1235 76.4136 20.6323 75.3141 19.5329C75.0164 19.2351 74.6629 18.999 74.2739 18.8378C73.8849 18.6767 73.4679 18.5938 73.0469 18.5938C72.1965 18.5938 71.3809 18.9316 70.7796 19.5329L70.3906 19.9219L70.0016 19.5329C69.7039 19.2351 69.3504 18.999 68.9614 18.8378C68.5724 18.6767 68.1554 18.5937 67.7344 18.5938C66.884 18.5938 66.0684 18.9316 65.4671 19.5329C64.9227 20.0773 64.4909 20.7236 64.1963 21.4348C63.9016 22.1461 63.75 22.9085 63.75 23.6784C63.75 24.7016 63.9882 25.7109 64.4459 26.6261L65.0781 27.8906V39.8438C65.8434 39.8438 66.5878 39.5945 67.1987 39.1336C67.8097 38.6728 68.2539 38.0255 68.4641 37.2897L70.3906 30.5469L72.3171 37.2897C72.5274 38.0255 72.9716 38.6728 73.5825 39.1336C74.1935 39.5945 74.9379 39.8438 75.7031 39.8438Z" fill="#E8F2FF"/>
<path d="M23.9062 33.2031L27.8906 27.2266H35.8594L39.8438 33.2031L31.875 38.5156L23.9062 33.2031Z" fill="#FFBFA1"/>
<path d="M41.1719 9.29688V21.25C41.1719 23.7157 40.1924 26.0804 38.4489 27.8239C36.7054 29.5674 34.3407 30.5469 31.875 30.5469H31.875C29.4093 30.5469 27.0446 29.5674 25.3011 27.8239C23.5576 26.0804 22.5781 23.7157 22.5781 21.25V9.29688H41.1719Z" fill="#FFCEB6"/>
<path d="M29.2188 3.98438H35.8594C37.2683 3.98438 38.6196 4.54408 39.6159 5.54037C40.6122 6.53666 41.1719 7.88791 41.1719 9.29688V11.9531L35.8594 9.29688H29.2188V3.98438Z" fill="#A36522"/>
<path d="M22.5781 11.9531V9.29688C22.5781 7.88791 23.1378 6.53666 24.1341 5.54037C25.1304 4.54408 26.4817 3.98438 27.8906 3.98438H30.5469C31.9558 3.98438 33.3071 4.54408 34.3034 5.54037C35.2997 6.53666 35.8594 7.88791 35.8594 9.29688C33.2614 11.0289 30.2088 11.9531 27.0864 11.9531H22.5781Z" fill="#B1712C"/>
<path d="M23.9062 33.2031L26.5625 42.5L31.875 38.5156L25.4802 30.842L23.9062 33.2031Z" fill="#7DAFFF"/>
<path d="M39.8438 33.2031L37.1875 42.5L31.875 38.5156L38.2698 30.842L39.8438 33.2031Z" fill="#7DAFFF"/>
<path d="M14.6094 69.0626H18.5938L23.9062 67.6138V81.0157H14.6094V69.0626Z" fill="#C8DBF7"/>
<path d="M29.2188 25.2344H30.5469C31.6032 25.2332 32.616 24.813 33.3629 24.066C34.1099 23.3191 34.53 22.3064 34.5312 21.25V19.9219H31.875V21.25C31.8746 21.6021 31.7345 21.9397 31.4856 22.1887C31.2366 22.4377 30.899 22.5777 30.5469 22.5781H29.2188V25.2344Z" fill="black"/>
<path d="M27.8906 18.5938C28.6241 18.5938 29.2188 17.9991 29.2188 17.2656C29.2188 16.5321 28.6241 15.9375 27.8906 15.9375C27.1571 15.9375 26.5625 16.5321 26.5625 17.2656C26.5625 17.9991 27.1571 18.5938 27.8906 18.5938Z" fill="black"/>
<path d="M35.8594 18.5938C36.5929 18.5938 37.1875 17.9991 37.1875 17.2656C37.1875 16.5321 36.5929 15.9375 35.8594 15.9375C35.1259 15.9375 34.5312 16.5321 34.5312 17.2656C34.5312 17.9991 35.1259 18.5938 35.8594 18.5938Z" fill="black"/>
<path d="M77.0312 29.9968V28.2042L77.5234 27.2201C78.0718 26.1199 78.3579 24.9077 78.3594 23.6784C78.362 22.7337 78.1771 21.7979 77.8156 20.9251C77.4541 20.0523 76.923 19.2599 76.2532 18.5938C75.491 17.8319 74.4826 17.3662 73.4084 17.2801C72.3342 17.194 71.2644 17.4931 70.3906 18.1238C69.5168 17.4931 68.4471 17.194 67.3729 17.2801C66.2987 17.3662 65.2902 17.8319 64.528 18.5938C63.8582 19.2599 63.3272 20.0523 62.9656 20.9251C62.6041 21.7979 62.4193 22.7337 62.4219 23.6784C62.4233 24.9077 62.7095 26.1199 63.2579 27.2201L63.75 28.2042V29.9968L58.8265 34.9203C58.7032 35.0436 58.6053 35.19 58.5386 35.3511C58.4718 35.5123 58.4375 35.685 58.4375 35.8594V45.1562C58.4375 45.3307 58.4718 45.5034 58.5386 45.6645C58.6053 45.8256 58.7032 45.9721 58.8265 46.0954C58.9498 46.2187 59.0962 46.3165 59.2574 46.3833C59.4185 46.45 59.5912 46.4844 59.7656 46.4844H65.8562L64.2914 48.0491L57.8064 51.2916L53.7314 41.1043C53.163 39.6871 52.1248 38.5084 50.7908 37.7655L50.3472 37.519L54.1659 32.6998C54.3838 32.4237 54.4832 32.0724 54.4423 31.723C54.4015 31.3736 54.2237 31.0548 53.948 30.8363C53.6724 30.6179 53.3213 30.5177 52.9718 30.5578C52.6224 30.5979 52.3031 30.775 52.0841 31.0502L47.9941 36.2117L40.7702 32.1985L38.8232 29.278C39.977 28.2827 40.9027 27.0504 41.5372 25.665C42.1717 24.2796 42.5001 22.7738 42.5 21.25V9.29688C42.498 7.53628 41.7977 5.84837 40.5528 4.60344C39.3079 3.35851 37.62 2.65824 35.8594 2.65625H27.8906C26.13 2.65824 24.4421 3.35851 23.1972 4.60344C21.9522 5.84837 21.252 7.53628 21.25 9.29688V21.25C21.2499 22.7738 21.5783 24.2796 22.2128 25.665C22.8473 27.0504 23.773 28.2827 24.9268 29.278L22.9968 32.1729L12.0993 37.6217C11.2843 38.0306 10.562 38.6024 9.97704 39.3018C9.39205 40.0012 8.95685 40.8132 8.69838 41.6875L2.71023 62.0471C2.64992 62.2521 2.63998 62.4687 2.68124 62.6784C2.72251 62.888 2.81376 63.0847 2.94725 63.2515L8.25975 69.8922C8.38418 70.0477 8.542 70.1733 8.72153 70.2595C8.90105 70.3458 9.09768 70.3906 9.29686 70.3906H13.2812V81.0156C13.2812 81.19 13.3156 81.3627 13.3823 81.5239C13.4491 81.685 13.5469 81.8314 13.6702 81.9548C13.7936 82.0781 13.94 82.1759 14.1011 82.2427C14.2622 82.3094 14.435 82.3438 14.6094 82.3438H50.4687C50.6432 82.3438 50.8159 82.3094 50.977 82.2427C51.1381 82.1759 51.2846 82.0781 51.4079 81.9548C51.5312 81.8314 51.629 81.685 51.6958 81.5239C51.7625 81.3627 51.7969 81.19 51.7969 81.0156V67.7344H59.7656C59.9518 67.7344 60.1359 67.6952 60.306 67.6195C60.476 67.5438 60.6283 67.4331 60.7528 67.2947L72.563 54.1722L81.6746 48.9656C81.8779 48.8494 82.0468 48.6816 82.1643 48.4791C82.2819 48.2766 82.3438 48.0466 82.3438 47.8125V35.8594C82.3438 35.685 82.3094 35.5123 82.2427 35.3511C82.1759 35.19 82.0781 35.0436 81.9547 34.9203L77.0312 29.9968ZM66.4062 20.472C66.7585 20.1198 67.2362 19.9219 67.7344 19.9219C68.2325 19.9219 68.7102 20.1198 69.0625 20.472L69.4515 20.861C69.7006 21.11 70.0384 21.25 70.3906 21.25C70.7429 21.25 71.0807 21.11 71.3297 20.861L71.7187 20.472C72.071 20.1197 72.5487 19.9219 73.0469 19.9219C73.545 19.9219 74.0227 20.1197 74.375 20.472C74.7974 20.8921 75.1322 21.3918 75.3602 21.9422C75.5882 22.4925 75.7047 23.0827 75.7031 23.6784C75.7021 24.4953 75.512 25.301 75.1475 26.0321L74.5152 27.2966C74.423 27.481 74.375 27.6844 74.375 27.8906V38.0649C73.9986 37.7791 73.7247 37.3792 73.5942 36.9249L71.6677 30.182C71.5884 29.9045 71.4208 29.6604 71.1904 29.4866C70.96 29.3128 70.6792 29.2188 70.3906 29.2188C70.102 29.2188 69.8212 29.3128 69.5908 29.4866C69.3604 29.6604 69.1929 29.9045 69.1136 30.182L67.187 36.9249C67.0566 37.3792 66.7827 37.7791 66.4062 38.0649V27.8906C66.4063 27.6844 66.3582 27.481 66.266 27.2966L65.6338 26.0322C65.2693 25.301 65.0791 24.4954 65.0781 23.6784C65.0765 23.0827 65.1931 22.4925 65.421 21.9421C65.649 21.3918 65.9839 20.8921 66.4062 20.472V20.472ZM61.0937 36.4095L63.75 33.7532V39.8438C63.75 40.0182 63.7843 40.1909 63.8511 40.352C63.9178 40.5131 64.0157 40.6596 64.139 40.7829C64.2623 40.9062 64.4087 41.004 64.5699 41.0708C64.731 41.1375 64.9037 41.1719 65.0781 41.1719C66.1311 41.1685 67.1547 40.824 67.9954 40.1898C68.8361 39.5557 69.4486 38.6662 69.7411 37.6546L70.3906 35.3814L71.0401 37.6546C71.3326 38.6662 71.9451 39.5557 72.7858 40.1898C73.6265 40.824 74.6501 41.1685 75.7031 41.1719C75.8775 41.1719 76.0502 41.1375 76.2114 41.0708C76.3725 41.004 76.5189 40.9062 76.6423 40.7829C76.7656 40.6596 76.8634 40.5131 76.9302 40.352C76.9969 40.1909 77.0312 40.0182 77.0312 39.8438V33.7532L79.6875 36.4095V43.8281H61.0937V36.4095ZM41.8616 47.8125H38.747L44.0706 41.6016L45.8705 42.8015L41.8616 47.8125ZM35.8594 70.2295V62.4219H38.5156V79.6875H31.8789C31.9156 78.2915 32.4883 76.9632 33.4782 75.9782C34.2355 75.225 34.8359 74.3291 35.2446 73.3423C35.6533 72.3556 35.8623 71.2975 35.8594 70.2295ZM39.133 59.7656H33.3831L32.0293 53.6734L36.302 50.4688H41.1719V56.7072L39.133 59.7656ZM38.398 33.4287L36.4406 40.2797L33.7903 38.2919L38.1513 33.0587L38.398 33.4287ZM36.612 30.7566L31.875 36.441L27.138 30.7566C28.6087 31.4921 30.2306 31.875 31.875 31.875C33.5194 31.875 35.1412 31.4921 36.612 30.7566ZM29.9597 38.2919L27.3094 40.2797L25.352 33.4287L25.5987 33.0587L29.9597 38.2919ZM25.2854 42.8649C25.3446 43.0719 25.4532 43.2615 25.6019 43.4172C25.7506 43.5729 25.9349 43.6902 26.139 43.7588C26.3431 43.8275 26.5608 43.8455 26.7734 43.8113C26.986 43.7771 27.1871 43.6917 27.3593 43.5625L31.875 40.1757L36.3906 43.5625C36.5629 43.6917 36.764 43.7771 36.9766 43.8113C37.1892 43.8455 37.4069 43.8275 37.611 43.7588C37.8151 43.6902 37.9994 43.5729 38.1481 43.4172C38.2968 43.2615 38.4054 43.0719 38.4645 42.8649L38.5156 42.6861V44.0008L34.9456 48.1658L29.9109 51.9419L25.2344 53.6121V42.6861L25.2854 42.8649ZM44.5648 38.7387C44.2948 38.5586 43.9681 38.4837 43.6466 38.528C43.3251 38.5724 43.0309 38.7329 42.8197 38.9794L41.1719 40.9019V35.4603L46.3222 38.3216L45.4985 39.3611L44.5648 38.7387ZM39.8437 9.29688V9.80416L37.1314 8.44801C36.9857 7.30979 36.5461 6.22913 35.8557 5.3125H35.8594C36.9157 5.31368 37.9285 5.73384 38.6754 6.4808C39.4224 7.22776 39.8426 8.24052 39.8437 9.29688ZM23.9062 9.29688C23.9074 8.24052 24.3276 7.22776 25.0745 6.4808C25.8215 5.73384 26.8343 5.31368 27.8906 5.3125H30.5469C31.4828 5.31371 32.3886 5.64384 33.1058 6.24517C33.8231 6.8465 34.3061 7.68078 34.4706 8.60217C32.2361 9.92876 29.685 10.6276 27.0864 10.625H23.9062V9.29688ZM23.9062 21.25V13.2812H27.0864C30.2052 13.2837 33.2652 12.4323 35.9345 10.8193L39.8437 12.7739V21.25C39.8437 23.3634 39.0042 25.3903 37.5098 26.8848C36.0153 28.3792 33.9884 29.2188 31.875 29.2188C29.7615 29.2188 27.7347 28.3792 26.2402 26.8848C24.7458 25.3903 23.9062 23.3634 23.9062 21.25ZM5.45378 62.1326L11.2467 42.4369C11.4017 41.9123 11.6629 41.4251 12.0139 41.0055C12.3649 40.5859 12.7983 40.2428 13.2872 39.9974L22.5781 35.352V54.5607L11.5064 58.5149L12.3998 61.0163L29.5767 54.8817L31.6319 64.13L18.4159 67.7344H9.93523L5.45378 62.1326ZM15.9375 70.3906H18.5937C18.7118 70.3906 18.8293 70.3749 18.9432 70.3438L22.5781 69.3525V79.6875H15.9375V70.3906ZM25.2344 79.6875V68.6281L33.2031 66.4548V70.2295C33.2051 70.9486 33.0644 71.6609 32.7892 72.3253C32.514 72.9897 32.1098 73.5928 31.5999 74.1C30.1105 75.5821 29.2577 77.5866 29.2227 79.6875H25.2344ZM59.1741 65.0781H51.1071L46.1934 58.936L44.1191 60.5953L49.1406 66.8722V79.6875H41.1719V61.4958L43.605 57.8461C43.7505 57.6279 43.8281 57.3716 43.8281 57.1094V49.6065L48.8496 43.3297C48.9646 43.1859 49.0485 43.0198 49.0959 42.8419C49.1433 42.664 49.1531 42.4782 49.1249 42.2962C49.0966 42.1143 49.0309 41.9402 48.9318 41.7851C48.8327 41.6299 48.7024 41.4971 48.5492 41.395L47.716 40.8395L48.6754 39.6289L49.5008 40.0874C50.3012 40.5332 50.9241 41.2404 51.2652 42.0907L55.8763 53.6183C55.9445 53.7888 56.0473 53.9434 56.1783 54.0722C56.3093 54.201 56.4657 54.3012 56.6374 54.3665C56.8091 54.4318 56.9925 54.4607 57.176 54.4515C57.3594 54.4423 57.539 54.3951 57.7033 54.3129L65.02 50.6545L69.6533 53.4346L59.1741 65.0781ZM79.6875 47.0418L71.7351 51.586L67.22 48.8769L69.6126 46.4844H79.6875V47.0418Z" fill="black"/>
</svg>
