<svg width="40" height="40" viewBox="0 0 40 40" fill="none" xmlns="http://www.w3.org/2000/svg">
<path d="M33.4375 8.06892L39.2188 13.7467V33.789C39.2188 36.7877 36.7878 39.2187 33.7891 39.2187H6.21094C3.21219 39.2187 0.78125 36.7877 0.78125 33.789V13.7467L6.5218 8.0061L33.4375 8.06892Z" fill="#F5C86E"/>
<path d="M26.4827 26.4827L33.4375 19.528V3.125C33.4375 1.83055 32.3882 0.78125 31.0938 0.78125H8.90625C7.6118 0.78125 6.5625 1.83055 6.5625 3.125V19.528L13.5173 26.4827L20 22.9575L26.4827 26.4827Z" fill="white"/>
<path d="M33.4375 8.06897L39.2188 13.7467L33.4375 19.528V8.06897Z" fill="#FF6E37"/>
<path d="M6.5625 8.06897L0.78125 13.7467L6.5625 19.528V8.06897Z" fill="#FF6E37"/>
<path d="M29.2685 38.4375H29.2588C28.8274 38.4375 28.4775 38.7873 28.4775 39.2188C28.4775 39.6502 28.8274 40 29.2588 40H29.2685C29.6999 40 30.0498 39.6502 30.0498 39.2188C30.0498 38.7873 29.6999 38.4375 29.2685 38.4375Z" fill="black"/>
<path d="M39.7692 13.1923L34.2188 7.68102V3.125C34.2188 1.40188 32.8169 0 31.0938 0H8.90625C7.18313 0 5.78125 1.40188 5.78125 3.125V7.64188L0.228828 13.1942C0.0823437 13.3409 0 13.5395 0 13.7467V33.7891C0 37.2138 2.78625 40 6.21094 40H25.7759C26.2073 40 26.5572 39.6502 26.5572 39.2188C26.5572 38.7873 26.2073 38.4375 25.7759 38.4375H6.21094C5.29633 38.4375 4.44336 38.1709 3.72352 37.713L5.18812 36.2484H17.1873C17.6187 36.2484 17.9686 35.8985 17.9686 35.4671C17.9686 35.0357 17.6187 34.6859 17.1873 34.6859H6.75055L16.0698 25.3666C18.237 23.1995 21.7631 23.1995 23.9302 25.3666L36.2764 37.713C35.5566 38.1709 34.7037 38.4375 33.7891 38.4375H32.7344C32.303 38.4375 31.9531 38.7873 31.9531 39.2188C31.9531 39.6502 32.303 40 32.7344 40H33.7891C35.3804 40 36.8333 39.3979 37.9334 38.4102C37.9604 38.3895 37.9866 38.3677 38.0113 38.343C38.0216 38.3327 38.0308 38.3216 38.0405 38.3108C39.2454 37.1772 40 35.5701 40 33.7891V13.7467C40 13.5386 39.917 13.339 39.7692 13.1923ZM38.112 13.7487L34.2188 17.6419V9.88297L38.112 13.7487ZM5.78125 17.6419L1.88617 13.7467L5.78125 9.85164V17.6419ZM1.5625 33.7891V15.6329L12.5781 26.6486L2.56242 36.6642C1.93711 35.8724 1.5625 34.874 1.5625 33.7891ZM14.9649 24.2618L13.683 25.5437L7.34375 19.2044V3.125C7.34375 2.26344 8.04469 1.5625 8.90625 1.5625H31.0938C31.9553 1.5625 32.6562 2.26344 32.6562 3.125V19.2044L26.317 25.5437L25.0351 24.2618C22.2588 21.4856 17.7412 21.4856 14.9649 24.2618ZM37.4375 36.6643L27.4219 26.6486L38.4375 15.6329V33.7891C38.4375 34.874 38.0629 35.8725 37.4375 36.6643Z" fill="black"/>
<path d="M12.6194 8.75H20.4687C20.9001 8.75 21.25 8.40016 21.25 7.96875C21.25 7.53734 20.9001 7.1875 20.4687 7.1875H12.6194C12.188 7.1875 11.8382 7.53734 11.8382 7.96875C11.8382 8.40016 12.188 8.75 12.6194 8.75Z" fill="black"/>
<path d="M24.0883 8.75C24.2938 8.75 24.4953 8.66641 24.6414 8.52102C24.7866 8.37578 24.8695 8.17422 24.8695 7.96875C24.8695 7.76328 24.7866 7.56172 24.6414 7.41641C24.4953 7.27109 24.2938 7.1875 24.0883 7.1875C23.8828 7.1875 23.6813 7.27102 23.5359 7.41641C23.3906 7.5618 23.307 7.76328 23.307 7.96875C23.307 8.17422 23.3906 8.37578 23.5359 8.52102C23.682 8.66641 23.8828 8.75 24.0883 8.75Z" fill="black"/>
<path d="M12.6194 14.375H27.3805C27.8119 14.375 28.1617 14.0252 28.1617 13.5938C28.1617 13.1623 27.8119 12.8125 27.3805 12.8125H12.6194C12.188 12.8125 11.8382 13.1623 11.8382 13.5938C11.8382 14.0252 12.188 14.375 12.6194 14.375Z" fill="black"/>
<path d="M28.1618 19.2188C28.1618 18.7873 27.8119 18.4375 27.3805 18.4375H12.6194C12.188 18.4375 11.8382 18.7873 11.8382 19.2188C11.8382 19.6502 12.188 20 12.6194 20H27.3805C27.8119 20 28.1618 19.6502 28.1618 19.2188Z" fill="black"/>
</svg>
