<svg width="85" height="85" viewBox="0 0 85 85" fill="none" xmlns="http://www.w3.org/2000/svg">
<path d="M23.9063 23.9062H15.9375C14.9712 23.9063 14.0164 23.6956 13.1399 23.2886C12.2634 22.8817 11.4863 22.2883 10.8629 21.55C10.2394 20.8117 9.78455 19.9462 9.53013 19.0139C9.2757 18.0817 9.22781 17.1051 9.3898 16.1524C9.55179 15.1997 9.91975 14.2939 10.468 13.4981C11.0162 12.7023 11.7316 12.0358 12.564 11.545C13.3965 11.0543 14.326 10.7511 15.2878 10.6567C16.2495 10.5623 17.2203 10.6789 18.1323 10.9985C18.8434 9.59897 19.9522 8.44076 21.3194 7.66922C22.6865 6.89767 24.2511 6.54719 25.8168 6.66175C27.3824 6.77632 28.8793 7.35084 30.1196 8.31318C31.3599 9.27553 32.2882 10.5828 32.7881 12.0709" fill="#D8D7DA"/>
<path d="M79.6875 81.0156H61.0938V46.4844L79.6875 54.4531V81.0156Z" fill="#FFDA44"/>
<path d="M61.0938 81.0156H23.9062V14.6094L61.0938 3.98438V81.0156Z" fill="#898890"/>
<path d="M34.5312 61.0938H50.4688V77.0312H34.5312V61.0938Z" fill="#83D8F4"/>
<path d="M31.875 77.0312H53.125V81.0156H31.875V77.0312Z" fill="#D8D7DA"/>
<path d="M29.2188 47.8125H55.7812V55.7812H29.2188V47.8125Z" fill="#83D8F4"/>
<path d="M66.4062 59.7656H79.6875V67.7344H66.4062V59.7656Z" fill="#83D8F4"/>
<path d="M29.2188 34.5312H55.7812V42.5H29.2188V34.5312Z" fill="#83D8F4"/>
<path d="M29.2188 21.25H55.7812V29.2188H29.2188V21.25Z" fill="#83D8F4"/>
<path d="M11.9531 67.7344C15.6206 67.7344 18.5938 63.572 18.5938 58.4375C18.5938 53.303 15.6206 49.1406 11.9531 49.1406C8.28561 49.1406 5.3125 53.303 5.3125 58.4375C5.3125 63.572 8.28561 67.7344 11.9531 67.7344Z" fill="#91CC04"/>
<path d="M6.64062 71.7188L11.9531 74.375L6.64062 71.7188Z" fill="#D8D7DA"/>
<path d="M61.0938 38.5156H73.0469C73.8048 38.5159 74.5539 38.354 75.2441 38.0409C75.9342 37.7277 76.5494 37.2705 77.0482 36.6999C77.5471 36.1294 77.9181 35.4587 78.1363 34.7329C78.3545 34.0071 78.4149 33.243 78.3135 32.492C78.212 31.7409 77.9511 31.0203 77.5481 30.3784C77.1451 29.7365 76.6094 29.1883 75.9771 28.7706C75.3447 28.3528 74.6303 28.0752 73.8818 27.9564C73.1333 27.8375 72.3681 27.8802 71.6374 28.0816C71.4689 26.9152 71.0439 25.8008 70.393 24.8184C69.7422 23.8361 68.8816 23.0102 67.8732 22.4004C66.8649 21.7906 65.7338 21.4119 64.5616 21.2916C63.3893 21.1714 62.2049 21.3125 61.0938 21.7049" fill="#D8D7DA"/>
<path d="M82.3438 79.6874H81.0156V54.4531C81.0155 54.1932 80.9392 53.9391 80.796 53.7222C80.6529 53.5053 80.4493 53.3352 80.2104 53.2328L62.4219 45.6077V39.8437H73.0469C74.8081 39.8437 76.4971 39.144 77.7425 37.8987C78.9879 36.6533 79.6875 34.9643 79.6875 33.2031C79.6875 31.4419 78.9879 29.7528 77.7425 28.5074C76.4971 27.2621 74.8081 26.5624 73.0469 26.5624C72.919 26.5624 72.7912 26.5658 72.6634 26.5741C72.0293 24.4328 70.6452 22.5915 68.7643 21.3876C66.8835 20.1836 64.6319 19.6974 62.4219 20.0181V3.98431C62.4221 3.77864 62.3745 3.57573 62.2829 3.3916C62.1912 3.20748 62.058 3.04718 61.8938 2.92336C61.7296 2.79955 61.5388 2.71561 61.3366 2.67817C61.1344 2.64073 60.9262 2.65083 60.7285 2.70765L33.5584 10.4705C32.8326 9.01106 31.7359 7.76804 30.3782 6.86612C29.0205 5.9642 27.4496 5.43508 25.8229 5.33182C24.1962 5.22857 22.5709 5.5548 21.1101 6.27781C19.6493 7.00083 18.4042 8.0952 17.4997 9.4512C16.4087 9.23326 15.2841 9.24618 14.1984 9.48915C13.1127 9.73211 12.0899 10.1997 11.1959 10.8619C10.3018 11.5241 9.55633 12.3661 9.0074 13.3338C8.45847 14.3016 8.11826 15.3735 8.00867 16.4806C7.89909 17.5878 8.02255 18.7056 8.37112 19.7622C8.71969 20.8187 9.28564 21.7906 10.0325 22.6152C10.7794 23.4398 11.6907 24.0988 12.7077 24.5499C13.7247 25.001 14.8249 25.2341 15.9375 25.2343H22.5781V79.6874H13.2812V68.9163C14.9796 68.5461 16.5269 67.467 17.7288 65.7836C19.1433 63.8047 19.9219 61.195 19.9219 58.4374C19.9219 55.6799 19.1433 53.0701 17.7288 51.0912C16.2197 48.9762 14.1678 47.8124 11.9531 47.8124C9.73848 47.8124 7.68652 48.9762 6.17744 51.0912C4.76299 53.0701 3.98438 55.6799 3.98438 58.4374C3.98438 61.195 4.76299 63.8047 6.17744 65.7836C7.37939 67.467 8.92666 68.5461 10.625 68.9163V72.2267L7.23496 70.53C6.91971 70.3724 6.55475 70.3464 6.22037 70.4579C5.88599 70.5694 5.60958 70.8091 5.45195 71.1244C5.29433 71.4396 5.26839 71.8046 5.37985 72.1389C5.49131 72.4733 5.73103 72.7497 6.04629 72.9074L10.625 75.1951V79.6874H2.65625C2.30401 79.6874 1.9662 79.8274 1.71712 80.0764C1.46805 80.3255 1.32813 80.6633 1.32812 81.0156C1.32813 81.3678 1.46805 81.7056 1.71712 81.9547C1.9662 82.2038 2.30401 82.3437 2.65625 82.3437H82.3438C82.696 82.3437 83.0338 82.2038 83.2829 81.9547C83.532 81.7056 83.6719 81.3678 83.6719 81.0156C83.6719 80.6633 83.532 80.3255 83.2829 80.0764C83.0338 79.8274 82.696 79.6874 82.3438 79.6874ZM62.4219 22.7125C62.8588 22.6225 63.3039 22.5775 63.75 22.5781C65.345 22.584 66.8851 23.1614 68.091 24.2055C69.2968 25.2496 70.0885 26.6913 70.3226 28.2691C70.3491 28.4556 70.415 28.6344 70.516 28.7936C70.617 28.9527 70.7507 29.0885 70.9082 29.192C71.0657 29.2955 71.2434 29.3643 71.4295 29.3938C71.6156 29.4233 71.8059 29.4128 71.9877 29.3631C72.5358 29.2114 73.11 29.1787 73.6718 29.2674C74.2335 29.356 74.7698 29.5639 75.2445 29.877C75.7193 30.1902 76.1215 30.6013 76.4241 31.0828C76.7268 31.5643 76.9228 32.105 76.9991 32.6686C77.0754 33.2321 77.0302 33.8055 76.8664 34.3501C76.7027 34.8948 76.4243 35.398 76.0499 35.8261C75.6755 36.2542 75.2138 36.5972 74.6958 36.832C74.1778 37.0668 73.6156 37.188 73.0469 37.1874H62.4219V22.7125ZM11.9531 61.0937C11.6009 61.0937 11.2631 61.2336 11.014 61.4827C10.7649 61.7318 10.625 62.0696 10.625 62.4218V66.1422C8.36387 65.2308 6.64062 62.0715 6.64062 58.4374C6.64062 54.1177 9.07275 50.4687 11.9531 50.4687C14.8335 50.4687 17.2656 54.1177 17.2656 58.4374C17.2656 62.0715 15.5424 65.2308 13.2812 66.1422V62.4218C13.2812 62.0696 13.1413 61.7318 12.8923 61.4827C12.6432 61.2336 12.3054 61.0937 11.9531 61.0937ZM23.541 13.3326C23.2636 13.412 23.0196 13.5795 22.8459 13.8098C22.6722 14.0402 22.5782 14.3208 22.5781 14.6093V22.5781H15.9375C15.1644 22.5781 14.4007 22.4094 13.6996 22.0838C12.9984 21.7581 12.3768 21.2834 11.8781 20.6927C11.3794 20.102 11.0156 19.4096 10.8121 18.6638C10.6087 17.918 10.5704 17.1368 10.7 16.3747C10.8297 15.6126 11.1241 14.888 11.5627 14.2514C12.0013 13.6148 12.5736 13.0816 13.2395 12.689C13.9055 12.2965 14.6491 12.054 15.4184 11.9785C16.1878 11.903 16.9644 11.9963 17.6939 12.2519C17.9973 12.358 18.3288 12.3505 18.6271 12.2309C18.9253 12.1112 19.17 11.8875 19.3159 11.6011C19.8543 10.5413 20.6672 9.64553 21.67 9.00721C22.6727 8.3689 23.8284 8.01149 25.0164 7.97231C26.2044 7.93313 27.3812 8.21361 28.4238 8.78446C29.4664 9.35532 30.3367 10.1956 30.9437 11.2176L23.541 13.3326ZM51.7969 79.6874H33.2031V78.3593H51.7969V79.6874ZM35.8594 75.7031V62.4218H41.1719V75.7031H35.8594ZM43.8281 75.7031V62.4218H49.1406V75.7031H43.8281ZM59.7656 79.6874H54.4531V77.0312C54.4531 76.6789 54.3132 76.3411 54.0641 76.0921C53.8151 75.843 53.4772 75.7031 53.125 75.7031H51.7969V61.0937C51.7969 60.7414 51.6569 60.4036 51.4079 60.1546C51.1588 59.9055 50.821 59.7656 50.4688 59.7656H34.5312C34.179 59.7656 33.8412 59.9055 33.5921 60.1546C33.3431 60.4036 33.2031 60.7414 33.2031 61.0937V75.7031H31.875C31.5228 75.7031 31.1849 75.843 30.9359 76.0921C30.6868 76.3411 30.5469 76.6789 30.5469 77.0312V79.6874H25.2344V15.6104L59.7656 5.74573V79.6874ZM78.3594 66.4062H67.7344V61.0937H78.3594V66.4062ZM78.3594 58.4374H66.4062C66.054 58.4374 65.7162 58.5774 65.4671 58.8264C65.2181 59.0755 65.0781 59.4133 65.0781 59.7656V67.7343C65.0781 68.0865 65.2181 68.4244 65.4671 68.6734C65.7162 68.9225 66.054 69.0624 66.4062 69.0624H78.3594V79.6874H62.4219V48.4981L78.3594 55.3296V58.4374Z" fill="black"/>
<path d="M55.7812 57.1094C56.1335 57.1094 56.4713 56.9694 56.7204 56.7204C56.9694 56.4713 57.1094 56.1335 57.1094 55.7812V47.8125C57.1094 47.4603 56.9694 47.1224 56.7204 46.8734C56.4713 46.6243 56.1335 46.4844 55.7812 46.4844H29.2188C28.8665 46.4844 28.5287 46.6243 28.2796 46.8734C28.0306 47.1224 27.8906 47.4603 27.8906 47.8125V55.7812C27.8906 56.1335 28.0306 56.4713 28.2796 56.7204C28.5287 56.9694 28.8665 57.1094 29.2188 57.1094H55.7812ZM30.5469 49.1406H54.4531V54.4531H30.5469V49.1406Z" fill="black"/>
<path d="M29.2188 43.8281H55.7812C56.1335 43.8281 56.4713 43.6882 56.7204 43.4391C56.9694 43.1901 57.1094 42.8522 57.1094 42.5V34.5312C57.1094 34.179 56.9694 33.8412 56.7204 33.5921C56.4713 33.3431 56.1335 33.2031 55.7812 33.2031H29.2188C28.8665 33.2031 28.5287 33.3431 28.2796 33.5921C28.0306 33.8412 27.8906 34.179 27.8906 34.5312V42.5C27.8906 42.8522 28.0306 43.1901 28.2796 43.4391C28.5287 43.6882 28.8665 43.8281 29.2188 43.8281ZM30.5469 35.8594H54.4531V41.1719H30.5469V35.8594Z" fill="black"/>
<path d="M29.2188 30.5469H55.7812C56.1335 30.5469 56.4713 30.4069 56.7204 30.1579C56.9694 29.9088 57.1094 29.571 57.1094 29.2188V21.25C57.1094 20.8978 56.9694 20.5599 56.7204 20.3109C56.4713 20.0618 56.1335 19.9219 55.7812 19.9219H29.2188C28.8665 19.9219 28.5287 20.0618 28.2796 20.3109C28.0306 20.5599 27.8906 20.8978 27.8906 21.25V29.2188C27.8906 29.571 28.0306 29.9088 28.2796 30.1579C28.5287 30.4069 28.8665 30.5469 29.2188 30.5469ZM30.5469 22.5781H54.4531V27.8906H30.5469V22.5781Z" fill="black"/>
</svg>
