<svg width="30" height="30" viewBox="0 0 30 30" fill="none" xmlns="http://www.w3.org/2000/svg">
<path d="M30 0H0V30H30V0Z" fill="#61A8DE"/>
<path d="M23.6221 6.62234L3.56071 14.44C2.91092 14.6933 2.95029 15.6257 3.61917 15.8232L8.71698 17.3286L10.6195 23.3654C10.8182 23.996 11.6173 24.1872 12.0799 23.7149L14.7156 21.0237L19.8871 24.8197C20.5199 25.2842 21.4213 24.9391 21.5819 24.1707L25.0071 7.7952C25.1748 6.99309 24.3856 6.3248 23.6221 6.62234ZM21.1069 10.2565L11.7885 18.4967C11.6956 18.5789 11.6365 18.6926 11.6227 18.8158L11.2639 22.005C11.2522 22.109 11.1067 22.1228 11.0756 22.0229L9.59954 17.2666C9.53193 17.0488 9.62008 16.8129 9.81381 16.6928L20.8179 9.86794C21.0709 9.71087 21.33 10.0592 21.1069 10.2565Z" fill="white"/>
</svg>
