<svg width="30" height="30" viewBox="0 0 30 30" fill="none" xmlns="http://www.w3.org/2000/svg">
<path d="M30 0H0V30H30V0Z" fill="#1BD741"/>
<path d="M4.50882 25.5026L5.9783 20.2834C5.03334 18.6781 4.53581 16.8515 4.53581 14.9752C4.53581 9.19774 9.23608 4.49747 15.0135 4.49747C20.7909 4.49747 25.4911 9.19774 25.4911 14.9752C25.4911 20.7526 20.7909 25.4529 15.0135 25.4529C13.2133 25.4529 11.4505 24.9921 9.89114 24.1171L4.50882 25.5026ZM10.1663 22.2109L10.487 22.4067C11.8466 23.2367 13.4119 23.6755 15.0135 23.6755C19.8109 23.6755 23.7138 19.7725 23.7138 14.9752C23.7138 10.1778 19.8109 6.27483 15.0135 6.27483C10.2161 6.27483 6.31317 10.1778 6.31317 14.9752C6.31317 16.6467 6.78826 18.27 7.68694 19.6694L7.90293 20.0058L7.0567 23.0113L10.1663 22.2109Z" fill="white"/>
<path d="M12.0702 10.0985L11.3903 10.0615C11.1768 10.0498 10.9673 10.1212 10.8059 10.2614C10.4763 10.5476 9.94926 11.101 9.78739 11.8221C9.546 12.8972 9.91905 14.2138 10.8845 15.5304C11.8501 16.8469 13.6493 18.9534 16.831 19.8531C17.8563 20.143 18.6628 19.9476 19.2851 19.5495C19.778 19.2342 20.1177 18.7282 20.2401 18.1562L20.3487 17.6492C20.3832 17.488 20.3014 17.3245 20.1517 17.2555L17.8539 16.1964C17.7048 16.1277 17.5279 16.1711 17.4276 16.3011L16.5255 17.4705C16.4574 17.5588 16.3407 17.5939 16.2354 17.5569C15.6177 17.3398 13.5484 16.4731 12.413 14.2861C12.3638 14.1912 12.376 14.0761 12.4459 13.9952L13.308 12.9979C13.396 12.896 13.4183 12.7529 13.3654 12.6291L12.3749 10.3119C12.3222 10.1885 12.204 10.1058 12.0702 10.0985Z" fill="white"/>
</svg>
